<svg width="16" height="16" viewBox="0 0 16 16" fill="none" xmlns="http://www.w3.org/2000/svg">
<path d="M8 1.33333C6.68146 1.33333 5.39252 1.72432 4.2962 2.45686C3.19987 3.18941 2.34539 4.2306 1.8408 5.44877C1.33622 6.66695 1.20419 8.00739 1.46143 9.3006C1.71866 10.5938 2.3536 11.7817 3.28595 12.714C4.2183 13.6464 5.40619 14.2813 6.6994 14.5386C7.9926 14.7958 9.33305 14.6638 10.5512 14.1592C11.7694 13.6546 12.8106 12.8001 13.5431 11.7038C14.2757 10.6075 14.6667 9.31854 14.6667 8C14.6667 7.12452 14.4942 6.25761 14.1592 5.44877C13.8242 4.63993 13.3331 3.90501 12.714 3.28595C12.095 2.66689 11.3601 2.17583 10.5512 1.8408C9.74238 1.50577 8.87548 1.33333 8 1.33333ZM10.8667 6.40666L7.82 10.4067C7.75789 10.4873 7.67813 10.5527 7.58684 10.5978C7.49555 10.6429 7.39514 10.6664 7.29333 10.6667C7.19207 10.6672 7.09201 10.6447 7.00076 10.6008C6.9095 10.5569 6.82945 10.4928 6.76666 10.4133L5.14 8.34C5.08616 8.27083 5.04646 8.19174 5.02319 8.10724C4.99991 8.02274 4.99351 7.93448 5.00434 7.8475C5.01517 7.76052 5.04303 7.67653 5.08633 7.60032C5.12962 7.52411 5.1875 7.45717 5.25666 7.40333C5.39635 7.29459 5.5735 7.24579 5.74916 7.26767C5.83614 7.27851 5.92013 7.30636 5.99634 7.34966C6.07255 7.39295 6.13949 7.45083 6.19333 7.51999L7.28 8.90666L9.8 5.57333C9.8534 5.50329 9.92008 5.44446 9.99622 5.40019C10.0724 5.35592 10.1565 5.32708 10.2438 5.31531C10.3311 5.30355 10.4198 5.3091 10.5049 5.33163C10.5901 5.35417 10.67 5.39326 10.74 5.44666C10.81 5.50007 10.8689 5.56674 10.9131 5.64288C10.9574 5.71903 10.9862 5.80314 10.998 5.89043C11.0098 5.97772 11.0042 6.06646 10.9817 6.15161C10.9592 6.23675 10.9201 6.31662 10.8667 6.38666V6.40666Z" fill="#085F00"/>
</svg>
