<svg width="14" height="24" viewBox="0 0 14 24" fill="none" xmlns="http://www.w3.org/2000/svg">
<g clip-path="url(#clip0)">
<path d="M0 7.57895C0 7.1419 0.215856 6.56629 0.647568 5.8521C1.07928 5.13791 1.49234 4.5463 1.88674 4.07728C1.99334 3.94937 2.12658 3.79214 2.28648 3.6056C2.44637 3.41905 2.53698 3.31512 2.55829 3.2938L3.18188 4.02931C3.6509 4.55163 4.08261 5.15923 4.47702 5.8521C4.87142 6.54497 5.06862 7.12059 5.06862 7.57895C5.06862 8.28248 4.82612 8.88474 4.34111 9.38574C3.8561 9.88674 3.26183 10.1372 2.55829 10.1372C1.85476 10.1372 1.2525 9.88674 0.751499 9.38574C0.2505 8.88474 0 8.28248 0 7.57895ZM5.32445 14.6622C5.32445 14.1719 5.46302 13.5989 5.74017 12.9434C6.01732 12.2878 6.35843 11.6829 6.76349 11.1286C7.54164 10.0839 8.28781 9.21519 9.002 8.52232C9.07662 8.46902 9.22585 8.33045 9.4497 8.1066L9.88141 8.52232C10.5423 9.15123 11.2938 10.0147 12.1359 11.1126C12.573 11.6989 12.9274 12.3118 13.1992 12.9514C13.471 13.5909 13.6069 14.1612 13.6069 14.6622C13.6069 15.8348 13.2072 16.8181 12.4077 17.6123C11.6083 18.4064 10.6223 18.8035 9.4497 18.8035C8.29847 18.8035 7.32312 18.3984 6.52365 17.5883C5.72418 16.7781 5.32445 15.8028 5.32445 14.6622ZM7.91472 2.89407C7.91472 2.15856 8.48501 1.19387 9.62558 0L10.0573 0.47968C10.3771 0.852765 10.6649 1.27115 10.9207 1.73484C11.1765 2.19853 11.3045 2.58494 11.3045 2.89407C11.3045 3.36309 11.1419 3.75483 10.8168 4.06929C10.4917 4.38374 10.0946 4.54097 9.62558 4.54097C9.13524 4.54097 8.72752 4.38374 8.4024 4.06929C8.07728 3.75483 7.91472 3.36309 7.91472 2.89407Z" fill="#4A8AD5"/>
</g>
<defs>
<clipPath id="clip0">
<rect width="13.6069" height="24" fill="white"/>
</clipPath>
</defs>
</svg>
