<svg width="18" height="16" viewBox="0 0 18 16" fill="none" xmlns="http://www.w3.org/2000/svg">
<path d="M0 0.5V15.5H18V0.5H0ZM1.5 2H16.5V14H1.5V2ZM9 3.5C5.751 3.5 3.32775 5.117 3.32775 5.117L2.74275 5.51525L3.11775 6.125L5.36775 9.875L5.57775 10.25H12.4222L12.6322 9.875L14.8822 6.125L15.2572 5.51525L14.6722 5.11775C14.6722 5.11775 12.2483 3.5 9 3.5ZM9 5C11.118 5 12.516 5.6795 13.1955 6.0545L11.6017 8.75H10.2188L11.1795 6.82775L9.8205 6.17225L8.53125 8.75H6.39825L4.8045 6.0545C5.484 5.6795 6.882 5 9 5Z" fill="currentColor"/>
</svg>
