<svg width="16" height="16" viewBox="0 0 16 16" fill="none" xmlns="http://www.w3.org/2000/svg">
<path d="M10 8.66667V3.33334C10 2.22667 9.10669 1.33334 8.00002 1.33334C6.89335 1.33334 6.00002 2.22667 6.00002 3.33334V8.66667C5.19335 9.27334 4.66669 10.2467 4.66669 11.3333C4.66669 13.1733 6.16002 14.6667 8.00002 14.6667C9.84002 14.6667 11.3334 13.1733 11.3334 11.3333C11.3334 10.2467 10.8067 9.27334 10 8.66667ZM7.33335 7.33334V3.33334C7.33335 2.96667 7.63335 2.66667 8.00002 2.66667C8.36669 2.66667 8.66669 2.96667 8.66669 3.33334V4H8.00002V4.66667H8.66669V6H8.00002V6.66667H8.66669V7.33334H7.33335Z" fill="currentColor"/>
</svg>
